<svg width="28" height="13" viewBox="0 0 28 13" fill="none" xmlns="http://www.w3.org/2000/svg">
<path d="M5.375 12L7.28409 0.363636H9.10227L7.19318 12H5.375ZM0.164773 9.11364L0.465909 7.29545H9.55682L9.25568 9.11364H0.164773ZM1.28409 12L3.19318 0.363636H5.01136L3.10227 12H1.28409ZM0.829545 5.06818L1.13636 3.25H10.2273L9.92045 5.06818H0.829545ZM15.8963 12.2557C14.919 12.2519 14.0781 12.0114 13.3736 11.5341C12.6728 11.0568 12.133 10.3655 11.7543 9.46023C11.3793 8.55492 11.1937 7.46591 11.1974 6.19318C11.1974 4.92424 11.3849 3.8428 11.7599 2.94886C12.1387 2.05492 12.6785 1.375 13.3793 0.909091C14.0838 0.439394 14.9228 0.204545 15.8963 0.204545C16.8698 0.204545 17.7069 0.439394 18.4077 0.909091C19.1122 1.37879 19.6539 2.06061 20.0327 2.95455C20.4115 3.8447 20.599 4.92424 20.5952 6.19318C20.5952 7.4697 20.4058 8.56061 20.027 9.46591C19.652 10.3712 19.1141 11.0625 18.4134 11.5398C17.7126 12.017 16.8736 12.2557 15.8963 12.2557ZM15.8963 10.2159C16.563 10.2159 17.0952 9.88068 17.4929 9.21023C17.8906 8.53977 18.0876 7.53409 18.0838 6.19318C18.0838 5.31061 17.9929 4.57576 17.8111 3.98864C17.633 3.40151 17.3793 2.96023 17.0497 2.66477C16.724 2.36932 16.3395 2.22159 15.8963 2.22159C15.2334 2.22159 14.7031 2.55303 14.3054 3.21591C13.9077 3.87879 13.7069 4.87121 13.7031 6.19318C13.7031 7.08712 13.7921 7.83333 13.9702 8.43182C14.152 9.02652 14.4077 9.47348 14.7372 9.77273C15.0668 10.0682 15.4531 10.2159 15.8963 10.2159ZM27.4119 0.363636V12H24.9517V2.69886H24.8835L22.2188 4.36932V2.1875L25.0994 0.363636H27.4119Z" fill="white"/>
</svg>
