<svg width="234" height="36" viewBox="0 0 234 36" fill="none" xmlns="http://www.w3.org/2000/svg">
<path d="M0.0340909 35V0.0909081H14.0114C16.5795 0.0909081 18.7216 0.47159 20.4375 1.23295C22.1534 1.99432 23.4432 3.05114 24.3068 4.40341C25.1705 5.74432 25.6023 7.28977 25.6023 9.03977C25.6023 10.4034 25.3295 11.6023 24.7841 12.6364C24.2386 13.6591 23.4886 14.5 22.5341 15.1591C21.5909 15.8068 20.5114 16.267 19.2955 16.5398V16.8807C20.625 16.9375 21.8693 17.3125 23.0284 18.0057C24.1989 18.6989 25.1477 19.6705 25.875 20.9205C26.6023 22.1591 26.9659 23.6364 26.9659 25.3523C26.9659 27.2045 26.5057 28.858 25.5852 30.3125C24.6761 31.7557 23.3295 32.8977 21.5455 33.7386C19.7614 34.5795 17.5625 35 14.9489 35H0.0340909ZM7.41477 28.9659H13.4318C15.4886 28.9659 16.9886 28.5739 17.9318 27.7898C18.875 26.9943 19.3466 25.9375 19.3466 24.6193C19.3466 23.6534 19.1136 22.8011 18.6477 22.0625C18.1818 21.3239 17.517 20.7443 16.6534 20.3239C15.8011 19.9034 14.7841 19.6932 13.6023 19.6932H7.41477V28.9659ZM7.41477 14.6989H12.8864C13.8977 14.6989 14.7955 14.5227 15.5795 14.1705C16.375 13.8068 17 13.2955 17.4545 12.6364C17.9205 11.9773 18.1534 11.1875 18.1534 10.267C18.1534 9.00568 17.7045 7.98864 16.8068 7.21591C15.9205 6.44318 14.6591 6.05682 13.0227 6.05682H7.41477V14.6989ZM48.4219 23.8523V8.81818H55.6832V35H48.7116V30.2443H48.4389C47.848 31.7784 46.8651 33.0114 45.4901 33.9432C44.1264 34.875 42.4616 35.3409 40.4957 35.3409C38.7457 35.3409 37.206 34.9432 35.8764 34.1477C34.5469 33.3523 33.5071 32.2216 32.7571 30.7557C32.0185 29.2898 31.6435 27.5341 31.6321 25.4886V8.81818H38.8935V24.1932C38.9048 25.7386 39.3196 26.9602 40.1378 27.858C40.956 28.7557 42.0526 29.2045 43.4276 29.2045C44.3026 29.2045 45.1207 29.0057 45.8821 28.608C46.6435 28.1989 47.2571 27.5966 47.723 26.8011C48.2003 26.0057 48.4332 25.0227 48.4219 23.8523ZM68.7528 0.0909081V35H61.4915V0.0909081H68.7528ZM74.706 35V0.0909081H81.9673V13.2159H82.1889C82.5071 12.5114 82.9673 11.7955 83.5696 11.0682C84.1832 10.3295 84.9787 9.71591 85.956 9.22727C86.9446 8.72727 88.1719 8.47727 89.6378 8.47727C91.5469 8.47727 93.3082 8.97727 94.9219 9.97727C96.5355 10.9659 97.8253 12.4602 98.7912 14.4602C99.7571 16.4489 100.24 18.9432 100.24 21.9432C100.24 24.8636 99.7685 27.3295 98.8253 29.3409C97.8935 31.3409 96.6207 32.858 95.0071 33.892C93.4048 34.9148 91.6094 35.4261 89.6207 35.4261C88.2116 35.4261 87.0128 35.1932 86.0241 34.7273C85.0469 34.2614 84.2457 33.6761 83.6207 32.9716C82.9957 32.2557 82.5185 31.5341 82.1889 30.8068H81.8651V35H74.706ZM81.8139 21.9091C81.8139 23.4659 82.0298 24.8239 82.4616 25.983C82.8935 27.142 83.5185 28.0455 84.3366 28.6932C85.1548 29.3295 86.1491 29.6477 87.3196 29.6477C88.5014 29.6477 89.5014 29.3239 90.3196 28.6761C91.1378 28.017 91.7571 27.108 92.1776 25.9489C92.6094 24.7784 92.8253 23.4318 92.8253 21.9091C92.8253 20.3977 92.6151 19.0682 92.1946 17.9205C91.7741 16.7727 91.1548 15.875 90.3366 15.2273C89.5185 14.5795 88.5128 14.2557 87.3196 14.2557C86.1378 14.2557 85.1378 14.5682 84.3196 15.1932C83.5128 15.8182 82.8935 16.7045 82.4616 17.8523C82.0298 19 81.8139 20.3523 81.8139 21.9091ZM112.551 35.4943C110.881 35.4943 109.392 35.2045 108.085 34.625C106.778 34.0341 105.744 33.1648 104.983 32.017C104.233 30.858 103.858 29.4148 103.858 27.6875C103.858 26.233 104.125 25.0114 104.659 24.0227C105.193 23.0341 105.92 22.2386 106.841 21.6364C107.761 21.0341 108.807 20.5795 109.977 20.2727C111.159 19.9659 112.398 19.75 113.693 19.625C115.216 19.4659 116.443 19.3182 117.375 19.1818C118.307 19.0341 118.983 18.8182 119.403 18.5341C119.824 18.25 120.034 17.8295 120.034 17.2727V17.1705C120.034 16.0909 119.693 15.2557 119.011 14.6648C118.341 14.0739 117.386 13.7784 116.148 13.7784C114.841 13.7784 113.801 14.0682 113.028 14.6477C112.256 15.2159 111.744 15.9318 111.494 16.7955L104.778 16.25C105.119 14.6591 105.79 13.2841 106.79 12.125C107.79 10.9545 109.08 10.0568 110.659 9.43182C112.25 8.79545 114.091 8.47727 116.182 8.47727C117.636 8.47727 119.028 8.64773 120.358 8.98864C121.699 9.32955 122.886 9.85795 123.92 10.5739C124.966 11.2898 125.79 12.2102 126.392 13.3352C126.994 14.4489 127.295 15.7841 127.295 17.3409V35H120.409V31.3693H120.205C119.784 32.1875 119.222 32.9091 118.517 33.5341C117.812 34.1477 116.966 34.6307 115.977 34.983C114.989 35.3239 113.847 35.4943 112.551 35.4943ZM114.631 30.483C115.699 30.483 116.642 30.2727 117.46 29.8523C118.278 29.4205 118.92 28.8409 119.386 28.1136C119.852 27.3864 120.085 26.5625 120.085 25.642V22.8636C119.858 23.0114 119.545 23.1477 119.148 23.2727C118.761 23.3864 118.324 23.4943 117.835 23.5966C117.347 23.6875 116.858 23.7727 116.369 23.8523C115.881 23.9205 115.438 23.983 115.04 24.0398C114.188 24.1648 113.443 24.3636 112.807 24.6364C112.17 24.9091 111.676 25.2784 111.324 25.7443C110.972 26.1989 110.795 26.767 110.795 27.4489C110.795 28.4375 111.153 29.1932 111.869 29.7159C112.597 30.2273 113.517 30.483 114.631 30.483ZM154.713 16.2841L148.065 16.6932C147.952 16.125 147.707 15.6136 147.332 15.1591C146.957 14.6932 146.463 14.3239 145.849 14.0511C145.247 13.767 144.526 13.625 143.685 13.625C142.56 13.625 141.611 13.8636 140.838 14.3409C140.065 14.8068 139.679 15.4318 139.679 16.2159C139.679 16.8409 139.929 17.3693 140.429 17.8011C140.929 18.233 141.787 18.5795 143.003 18.8409L147.741 19.7955C150.287 20.3182 152.185 21.1591 153.435 22.3182C154.685 23.4773 155.31 25 155.31 26.8864C155.31 28.6023 154.804 30.108 153.793 31.4034C152.793 32.6989 151.418 33.7102 149.668 34.4375C147.929 35.1534 145.923 35.5114 143.651 35.5114C140.185 35.5114 137.423 34.7898 135.366 33.3466C133.321 31.892 132.122 29.9148 131.77 27.4148L138.912 27.0398C139.128 28.0966 139.651 28.9034 140.48 29.4602C141.31 30.0057 142.372 30.2784 143.668 30.2784C144.94 30.2784 145.963 30.0341 146.736 29.5455C147.52 29.0455 147.918 28.4034 147.929 27.6193C147.918 26.9602 147.639 26.4205 147.094 26C146.548 25.5682 145.707 25.2386 144.571 25.0114L140.037 24.108C137.48 23.5966 135.577 22.7102 134.327 21.4489C133.088 20.1875 132.469 18.5795 132.469 16.625C132.469 14.9432 132.923 13.4943 133.832 12.2784C134.753 11.0625 136.043 10.125 137.702 9.46591C139.372 8.80682 141.327 8.47727 143.565 8.47727C146.872 8.47727 149.474 9.17614 151.372 10.5739C153.281 11.9716 154.395 13.875 154.713 16.2841ZM167.348 35.4943C165.678 35.4943 164.189 35.2045 162.882 34.625C161.575 34.0341 160.541 33.1648 159.78 32.017C159.03 30.858 158.655 29.4148 158.655 27.6875C158.655 26.233 158.922 25.0114 159.456 24.0227C159.99 23.0341 160.717 22.2386 161.638 21.6364C162.558 21.0341 163.604 20.5795 164.774 20.2727C165.956 19.9659 167.195 19.75 168.49 19.625C170.013 19.4659 171.24 19.3182 172.172 19.1818C173.104 19.0341 173.78 18.8182 174.2 18.5341C174.621 18.25 174.831 17.8295 174.831 17.2727V17.1705C174.831 16.0909 174.49 15.2557 173.808 14.6648C173.138 14.0739 172.183 13.7784 170.945 13.7784C169.638 13.7784 168.598 14.0682 167.825 14.6477C167.053 15.2159 166.541 15.9318 166.291 16.7955L159.575 16.25C159.916 14.6591 160.587 13.2841 161.587 12.125C162.587 10.9545 163.876 10.0568 165.456 9.43182C167.047 8.79545 168.888 8.47727 170.979 8.47727C172.433 8.47727 173.825 8.64773 175.155 8.98864C176.496 9.32955 177.683 9.85795 178.717 10.5739C179.763 11.2898 180.587 12.2102 181.189 13.3352C181.791 14.4489 182.092 15.7841 182.092 17.3409V35H175.206V31.3693H175.001C174.581 32.1875 174.018 32.9091 173.314 33.5341C172.609 34.1477 171.763 34.6307 170.774 34.983C169.786 35.3239 168.643 35.4943 167.348 35.4943ZM169.428 30.483C170.496 30.483 171.439 30.2727 172.257 29.8523C173.075 29.4205 173.717 28.8409 174.183 28.1136C174.649 27.3864 174.882 26.5625 174.882 25.642V22.8636C174.655 23.0114 174.342 23.1477 173.945 23.2727C173.558 23.3864 173.121 23.4943 172.632 23.5966C172.143 23.6875 171.655 23.7727 171.166 23.8523C170.678 23.9205 170.234 23.983 169.837 24.0398C168.984 24.1648 168.24 24.3636 167.604 24.6364C166.967 24.9091 166.473 25.2784 166.121 25.7443C165.768 26.1989 165.592 26.767 165.592 27.4489C165.592 28.4375 165.95 29.1932 166.666 29.7159C167.393 30.2273 168.314 30.483 169.428 30.483ZM204.516 23.8523V8.81818H211.777V35H204.805V30.2443H204.533C203.942 31.7784 202.959 33.0114 201.584 33.9432C200.22 34.875 198.555 35.3409 196.589 35.3409C194.839 35.3409 193.3 34.9432 191.97 34.1477C190.641 33.3523 189.601 32.2216 188.851 30.7557C188.112 29.2898 187.737 27.5341 187.726 25.4886V8.81818H194.987V24.1932C194.999 25.7386 195.413 26.9602 196.232 27.858C197.05 28.7557 198.146 29.2045 199.521 29.2045C200.396 29.2045 201.214 29.0057 201.976 28.608C202.737 28.1989 203.351 27.5966 203.817 26.8011C204.294 26.0057 204.527 25.0227 204.516 23.8523ZM217.585 35V8.81818H224.625V13.3864H224.898C225.375 11.7614 226.176 10.5341 227.301 9.70455C228.426 8.86364 229.722 8.44318 231.188 8.44318C231.551 8.44318 231.943 8.46591 232.364 8.51136C232.784 8.55682 233.153 8.61932 233.472 8.69886V15.142C233.131 15.0398 232.659 14.9489 232.057 14.8693C231.455 14.7898 230.903 14.75 230.403 14.75C229.335 14.75 228.381 14.983 227.54 15.4489C226.71 15.9034 226.051 16.5398 225.562 17.358C225.085 18.1761 224.847 19.1193 224.847 20.1875V35H217.585Z" fill="white"/>
</svg>
