<svg width="104" height="39" viewBox="0 0 104 39" fill="none" xmlns="http://www.w3.org/2000/svg">
<rect x="1" y="1" width="102" height="37" rx="12" fill="#ECECEC"/>
<path d="M12.596 25V15.2H16.264C17.0947 15.2 17.8087 15.3353 18.406 15.606C19.0033 15.8673 19.4607 16.25 19.778 16.754C20.1047 17.2487 20.268 17.8507 20.268 18.56C20.268 19.2507 20.1047 19.848 19.778 20.352C19.4607 20.8467 19.0033 21.2293 18.406 21.5C17.8087 21.7613 17.0947 21.892 16.264 21.892H13.17L13.632 21.416V25H12.596ZM19.288 25L16.768 21.444H17.888L20.422 25H19.288ZM13.632 21.5L13.17 21.01H16.236C17.216 21.01 17.958 20.7953 18.462 20.366C18.9753 19.9367 19.232 19.3347 19.232 18.56C19.232 17.776 18.9753 17.1693 18.462 16.74C17.958 16.3107 17.216 16.096 16.236 16.096H13.17L13.632 15.606V21.5ZM27.0408 25V23.376L26.9988 23.11V20.394C26.9988 19.7687 26.8215 19.288 26.4668 18.952C26.1215 18.616 25.6035 18.448 24.9128 18.448C24.4368 18.448 23.9842 18.5273 23.5548 18.686C23.1255 18.8447 22.7615 19.0547 22.4628 19.316L22.0148 18.574C22.3882 18.2567 22.8362 18.014 23.3588 17.846C23.8815 17.6687 24.4322 17.58 25.0108 17.58C25.9628 17.58 26.6955 17.818 27.2088 18.294C27.7315 18.7607 27.9928 19.4747 27.9928 20.436V25H27.0408ZM24.5068 25.07C23.9562 25.07 23.4755 24.9813 23.0648 24.804C22.6635 24.6173 22.3555 24.3653 22.1408 24.048C21.9262 23.7213 21.8188 23.348 21.8188 22.928C21.8188 22.5453 21.9075 22.2 22.0848 21.892C22.2715 21.5747 22.5702 21.3227 22.9808 21.136C23.4008 20.94 23.9608 20.842 24.6608 20.842H27.1948V21.584H24.6888C23.9795 21.584 23.4848 21.71 23.2048 21.962C22.9342 22.214 22.7988 22.5267 22.7988 22.9C22.7988 23.32 22.9622 23.656 23.2888 23.908C23.6155 24.16 24.0728 24.286 24.6608 24.286C25.2208 24.286 25.7015 24.16 26.1028 23.908C26.5135 23.6467 26.8122 23.2733 26.9988 22.788L27.2228 23.474C27.0362 23.9593 26.7095 24.3467 26.2428 24.636C25.7855 24.9253 25.2068 25.07 24.5068 25.07ZM29.8946 25V24.342L34.7946 18.14L35.0046 18.476H29.9786V17.65H35.7886V18.294L30.9026 24.51L30.6506 24.174H35.8866V25H29.8946ZM40.716 25.07C40.0067 25.07 39.3673 24.9113 38.798 24.594C38.238 24.2673 37.7947 23.824 37.468 23.264C37.1413 22.6947 36.978 22.046 36.978 21.318C36.978 20.5807 37.1413 19.932 37.468 19.372C37.7947 18.812 38.238 18.3733 38.798 18.056C39.358 17.7387 39.9973 17.58 40.716 17.58C41.444 17.58 42.088 17.7387 42.648 18.056C43.2173 18.3733 43.6607 18.812 43.978 19.372C44.3047 19.932 44.468 20.5807 44.468 21.318C44.468 22.046 44.3047 22.6947 43.978 23.264C43.6607 23.824 43.2173 24.2673 42.648 24.594C42.0787 24.9113 41.4347 25.07 40.716 25.07ZM40.716 24.188C41.248 24.188 41.7193 24.0713 42.13 23.838C42.5407 23.5953 42.8627 23.2593 43.096 22.83C43.3387 22.3913 43.46 21.8873 43.46 21.318C43.46 20.7393 43.3387 20.2353 43.096 19.806C42.8627 19.3767 42.5407 19.0453 42.13 18.812C41.7193 18.5693 41.2527 18.448 40.73 18.448C40.2073 18.448 39.7407 18.5693 39.33 18.812C38.9193 19.0453 38.5927 19.3767 38.35 19.806C38.1073 20.2353 37.986 20.7393 37.986 21.318C37.986 21.8873 38.1073 22.3913 38.35 22.83C38.5927 23.2593 38.9193 23.5953 39.33 23.838C39.7407 24.0713 40.2027 24.188 40.716 24.188ZM46.4973 25V17.65H47.4493V19.652L47.3513 19.302C47.5567 18.742 47.902 18.3173 48.3873 18.028C48.8727 17.7293 49.4747 17.58 50.1933 17.58V18.546C50.156 18.546 50.1187 18.546 50.0813 18.546C50.044 18.5367 50.0067 18.532 49.9693 18.532C49.1947 18.532 48.588 18.77 48.1493 19.246C47.7107 19.7127 47.4913 20.38 47.4913 21.248V25H46.4973ZM58.2165 25L54.9125 15.2H55.9765L59.0705 24.426H58.5385L61.7305 15.2H62.6825L65.8325 24.426H65.3285L68.4505 15.2H69.4445L66.1405 25H65.0485L62.0385 16.25H62.3185L59.2945 25H58.2165ZM71.093 25V17.65H72.087V25H71.093ZM71.597 16.026C71.3917 16.026 71.219 15.956 71.079 15.816C70.939 15.676 70.869 15.508 70.869 15.312C70.869 15.116 70.939 14.9527 71.079 14.822C71.219 14.682 71.3917 14.612 71.597 14.612C71.8024 14.612 71.975 14.6773 72.115 14.808C72.255 14.9387 72.325 15.102 72.325 15.298C72.325 15.5033 72.255 15.676 72.115 15.816C71.9844 15.956 71.8117 16.026 71.597 16.026ZM78.6048 17.58C79.2021 17.58 79.7248 17.6967 80.1728 17.93C80.6301 18.154 80.9848 18.4993 81.2368 18.966C81.4981 19.4327 81.6288 20.0207 81.6288 20.73V25H80.6348V20.828C80.6348 20.0533 80.4388 19.47 80.0468 19.078C79.6641 18.6767 79.1228 18.476 78.4228 18.476C77.9001 18.476 77.4428 18.5833 77.0508 18.798C76.6681 19.0033 76.3695 19.3067 76.1548 19.708C75.9495 20.1 75.8468 20.576 75.8468 21.136V25H74.8528V17.65H75.8048V19.666L75.6508 19.288C75.8841 18.756 76.2575 18.3407 76.7708 18.042C77.2841 17.734 77.8955 17.58 78.6048 17.58ZM87.2397 25.07C86.5397 25.07 85.9097 24.9113 85.3497 24.594C84.7991 24.2767 84.3651 23.838 84.0477 23.278C83.7304 22.7087 83.5717 22.0553 83.5717 21.318C83.5717 20.5713 83.7304 19.918 84.0477 19.358C84.3651 18.798 84.7991 18.364 85.3497 18.056C85.9097 17.7387 86.5397 17.58 87.2397 17.58C87.8837 17.58 88.4577 17.7247 88.9617 18.014C89.4751 18.3033 89.8811 18.728 90.1797 19.288C90.4877 19.8387 90.6417 20.5153 90.6417 21.318C90.6417 22.1113 90.4924 22.788 90.1937 23.348C89.8951 23.908 89.4891 24.3373 88.9757 24.636C88.4717 24.9253 87.8931 25.07 87.2397 25.07ZM87.3097 24.188C87.8324 24.188 88.2991 24.0713 88.7097 23.838C89.1297 23.5953 89.4564 23.2593 89.6897 22.83C89.9324 22.3913 90.0537 21.8873 90.0537 21.318C90.0537 20.7393 89.9324 20.2353 89.6897 19.806C89.4564 19.3767 89.1297 19.0453 88.7097 18.812C88.2991 18.5693 87.8324 18.448 87.3097 18.448C86.7964 18.448 86.3344 18.5693 85.9237 18.812C85.5131 19.0453 85.1864 19.3767 84.9437 19.806C84.7011 20.2353 84.5797 20.7393 84.5797 21.318C84.5797 21.8873 84.7011 22.3913 84.9437 22.83C85.1864 23.2593 85.5131 23.5953 85.9237 23.838C86.3344 24.0713 86.7964 24.188 87.3097 24.188ZM90.0817 25V22.788L90.1797 21.304L90.0397 19.82V14.612H91.0337V25H90.0817Z" fill="black"/>
<rect x="0.5" y="0.5" width="103" height="38" rx="12.5" stroke="black" stroke-opacity="0.14" stroke-dasharray="3 3"/>
</svg>
